HIERARCHY
ROOT Hips
{
	OFFSET -14.64140 90.27770 -84.91600
	CHANNELS 6 Xposition Yposition Zposition Zrotation Xrotation Yrotation
	JOINT Spine
	{
		OFFSET 0.00000 13.20850 -1.60436
		CHANNELS 3 Zrotation Xrotation Yrotation
		JOINT Spine1
		{
			OFFSET 0.00000 8.61716 0.00000
			CHANNELS 3 Zrotation Xrotation Yrotation
			JOINT Spine2
			{
				OFFSET 0.00000 8.61717 0.00000
				CHANNELS 3 Zrotation Xrotation Yrotation
				JOINT Spine3
				{
					OFFSET 0.00000 8.61717 0.00000
					CHANNELS 3 Zrotation Xrotation Yrotation
					JOINT Neck
					{
						OFFSET 0.00000 11.07920 1.10792
						CHANNELS 3 Zrotation Xrotation Yrotation
						JOINT Neck1
						{
							OFFSET 0.00000 7.08032 0.00000
							CHANNELS 3 Zrotation Xrotation Yrotation
							JOINT Head
							{
								OFFSET 0.00000 7.08031 0.00000
								CHANNELS 3 Zrotation Xrotation Yrotation
								End site
								{
									OFFSET 0.00000 0.00000 0.00000
								}
							}
						}
					}
					JOINT RightShoulder
					{
						OFFSET -0.01000 7.91373 5.19711
						CHANNELS 3 Zrotation Xrotation Yrotation
						JOINT RightArm
						{
							OFFSET -18.41580 0.00000 0.00000
							CHANNELS 3 Zrotation Xrotation Yrotation
							JOINT RightForeArm
							{
								OFFSET -29.11090 0.00000 0.00000
								CHANNELS 3 Zrotation Xrotation Yrotation
								JOINT RightHand
								{
									OFFSET -24.65040 0.00000 0.00000
									CHANNELS 3 Zrotation Xrotation Yrotation
									JOINT RightHandThumb1
									{
										OFFSET -5.35114 -0.85590 3.97906
										CHANNELS 3 Zrotation Xrotation Yrotation
										JOINT RightHandThumb2
										{
											OFFSET -4.52789 0.00000 0.00000
											CHANNELS 3 Zrotation Xrotation Yrotation
											JOINT RightHandThumb3
											{
												OFFSET -2.46976 0.00000 0.00000
												CHANNELS 3 Zrotation Xrotation Yrotation
												End site
												{
													OFFSET 0.00000 0.00000 0.00000
												}
											}
										}
									}
									JOINT RightHandIndex1
									{
										OFFSET -14.26970 0.00000 2.88139
										CHANNELS 3 Zrotation Xrotation Yrotation
										JOINT RightHandIndex2
										{
											OFFSET -5.48836 0.00000 0.00000
											CHANNELS 3 Zrotation Xrotation Yrotation
											JOINT RightHandIndex3
											{
												OFFSET -3.01859 0.00000 0.00000
												CHANNELS 3 Zrotation Xrotation Yrotation
												End site
												{
													OFFSET 0.00000 0.00000 0.00000
												}
											}
										}
									}
									JOINT RightHandMiddle1
									{
										OFFSET -14.26970 0.00000 -0.09147
										CHANNELS 3 Zrotation Xrotation Yrotation
										JOINT RightHandMiddle2
										{
											OFFSET -6.17441 0.00000 0.00000
											CHANNELS 3 Zrotation Xrotation Yrotation
											JOINT RightHandMiddle3
											{
												OFFSET -3.56743 0.00000 0.00000
												CHANNELS 3 Zrotation Xrotation Yrotation
												End site
												{
													OFFSET 0.00000 0.00000 0.00000
												}
											}
										}
									}
									JOINT RightHandRing1
									{
										OFFSET -12.69180 0.00000 -3.06433
										CHANNELS 3 Zrotation Xrotation Yrotation
										JOINT RightHandRing2
										{
											OFFSET -5.62556 0.00000 0.00000
											CHANNELS 3 Zrotation Xrotation Yrotation
											JOINT RightHandRing3
											{
												OFFSET -3.56744 0.00000 0.00000
												CHANNELS 3 Zrotation Xrotation Yrotation
												End site
												{
													OFFSET 0.00000 0.00000 0.00000
												}
											}
										}
									}
									JOINT RightHandPinky1
									{
										OFFSET -11.11390 0.00000 -6.03719
										CHANNELS 3 Zrotation Xrotation Yrotation
										JOINT RightHandPinky2
										{
											OFFSET -4.52789 0.00000 0.00000
											CHANNELS 3 Zrotation Xrotation Yrotation
											JOINT RightHandPinky3
											{
												OFFSET -2.46976 0.00000 0.00000
												CHANNELS 3 Zrotation Xrotation Yrotation
												End site
												{
													OFFSET 0.00000 0.00000 0.00000
												}
											}
										}
									}
								}
							}
						}
					}
					JOINT LeftShoulder
					{
						OFFSET 0.01000 7.91373 5.19711
						CHANNELS 3 Zrotation Xrotation Yrotation
						JOINT LeftArm
						{
							OFFSET 18.41580 0.00000 0.00000
							CHANNELS 3 Zrotation Xrotation Yrotation
							JOINT LeftForeArm
							{
								OFFSET 29.11090 0.00000 0.00000
								CHANNELS 3 Zrotation Xrotation Yrotation
								JOINT LeftHand
								{
									OFFSET 24.65040 0.00000 0.00000
									CHANNELS 3 Zrotation Xrotation Yrotation
									JOINT LeftHandThumb1
									{
										OFFSET 5.35114 -0.85590 3.97906
										CHANNELS 3 Zrotation Xrotation Yrotation
										JOINT LeftHandThumb2
										{
											OFFSET 4.52789 0.00000 0.00000
											CHANNELS 3 Zrotation Xrotation Yrotation
											JOINT LeftHandThumb3
											{
												OFFSET 2.46977 0.00000 0.00000
												CHANNELS 3 Zrotation Xrotation Yrotation
												End site
												{
													OFFSET 0.00000 0.00000 0.00000
												}
											}
										}
									}
									JOINT LeftHandIndex1
									{
										OFFSET 14.26970 0.00000 2.88139
										CHANNELS 3 Zrotation Xrotation Yrotation
										JOINT LeftHandIndex2
										{
											OFFSET 5.48836 0.00000 0.00000
											CHANNELS 3 Zrotation Xrotation Yrotation
											JOINT LeftHandIndex3
											{
												OFFSET 3.01859 0.00000 0.00000
												CHANNELS 3 Zrotation Xrotation Yrotation
												End site
												{
													OFFSET 0.00000 0.00000 0.00000
												}
											}
										}
									}
									JOINT LeftHandMiddle1
									{
										OFFSET 14.26970 0.00000 -0.09147
										CHANNELS 3 Zrotation Xrotation Yrotation
										JOINT LeftHandMiddle2
										{
											OFFSET 6.17440 0.00000 0.00000
											CHANNELS 3 Zrotation Xrotation Yrotation
											JOINT LeftHandMiddle3
											{
												OFFSET 3.56744 0.00000 0.00000
												CHANNELS 3 Zrotation Xrotation Yrotation
												End site
												{
													OFFSET 0.00000 0.00000 0.00000
												}
											}
										}
									}
									JOINT LeftHandRing1
									{
										OFFSET 12.69180 0.00000 -3.06433
										CHANNELS 3 Zrotation Xrotation Yrotation
										JOINT LeftHandRing2
										{
											OFFSET 5.62556 0.00000 0.00000
											CHANNELS 3 Zrotation Xrotation Yrotation
											JOINT LeftHandRing3
											{
												OFFSET 3.56744 0.00000 0.00000
												CHANNELS 3 Zrotation Xrotation Yrotation
												End site
												{
													OFFSET 0.00000 0.00000 0.00000
												}
											}
										}
									}
									JOINT LeftHandPinky1
									{
										OFFSET 11.11390 0.00000 -6.03719
										CHANNELS 3 Zrotation Xrotation Yrotation
										JOINT LeftHandPinky2
										{
											OFFSET 4.52789 0.00000 0.00000
											CHANNELS 3 Zrotation Xrotation Yrotation
											JOINT LeftHandPinky3
											{
												OFFSET 2.46976 0.00000 0.00000
												CHANNELS 3 Zrotation Xrotation Yrotation
												End site
												{
													OFFSET 0.00000 0.00000 0.00000
												}
											}
										}
									}
								}
							}
						}
					}
					JOINT pCube4
					{
						OFFSET 0.00000 10.91090 1.10792
						CHANNELS 3 Zrotation Xrotation Yrotation
						End site
						{
							OFFSET 0.00000 0.00000 0.00000
						}
					}
				}
			}
		}
	}
	JOINT RightUpLeg
	{
		OFFSET -9.98441 0.00000 0.00000
		CHANNELS 3 Zrotation Xrotation Yrotation
		JOINT RightLeg
		{
			OFFSET 0.00000 -42.11790 0.00000
			CHANNELS 3 Zrotation Xrotation Yrotation
			JOINT RightFoot
			{
				OFFSET 0.00000 -45.00020 -0.00001
				CHANNELS 3 Zrotation Xrotation Yrotation
				JOINT RightForeFoot
				{
					OFFSET 0.00000 -3.74820 0.00000
					CHANNELS 3 Zrotation Xrotation Yrotation
					JOINT RightToeBase
					{
						OFFSET 0.00000 0.06325 14.43120
						CHANNELS 3 Zrotation Xrotation Yrotation
						End site
						{
							OFFSET 0.00000 0.00000 0.00000
						}
					}
				}
			}
		}
	}
	JOINT LeftUpLeg
	{
		OFFSET 9.98441 0.00000 0.00000
		CHANNELS 3 Zrotation Xrotation Yrotation
		JOINT LeftLeg
		{
			OFFSET 0.00000 -42.11800 0.00000
			CHANNELS 3 Zrotation Xrotation Yrotation
			JOINT LeftFoot
			{
				OFFSET 0.00000 -45.00070 0.00000
				CHANNELS 3 Zrotation Xrotation Yrotation
				JOINT LeftForeFoot
				{
					OFFSET 0.00000 -3.74824 0.00000
					CHANNELS 3 Zrotation Xrotation Yrotation
					JOINT LeftToeBase
					{
						OFFSET 0.00000 0.06325 14.43110
						CHANNELS 3 Zrotation Xrotation Yrotation
						End site
						{
							OFFSET 0.00000 0.00000 0.00000
						}
					}
				}
			}
		}
	}
}
MOTION
Frames: 4
Frame Time: 0.050000
0.0331540865217091 0.024317787608642297 0.04483561681094253 0.016874063232294543 -0.009179702735517875 -0.03346440362350409 4.087917767984335 4.446795543106214 -1.8607194431891418 -0.9378940735801818 3.8870926429045616 0.4253527617845089 -0.6331728389782579 -0.9796866865593026 0.4034272384561983 -0.5551328040898574 0.17568452549072902 -0.35414132639175544 -0.9880244974368831 13.838462858585938 1.2790934641801068 0.1920829482357506 -0.942229843505067 3.289081512484195 0.11687708586164434 -17.84472465848368 0.26310999631243076 -8.314341488307347 2.9836662528814113 -16.96657160592985 80.49425819084045 15.282103007385837 2.3234667382808945 -0.6055277432981113 5.988017977623529 55.268506976725796 14.275582388124564 -0.20819595650960193 -1.153507591459082 4.533118105845875 -0.11677016205202084 -1.6338341864968238 -0.0023571749131307586 0.028929408631517967 -56.28343376407826 0.010948150492358156 0.04234030669087075 -56.188674996711256 -38.80533045857344 -0.0333348508619834 -0.04359697216623689 -0.002232365807700615 -0.04638926297583756 0.018871479098152035 0.029618730698379257 -0.032927421780493155 0.0041863845742086655 -36.657382661381284 -0.009092929480756351 0.04486821014704394 0.026381556046623584 -0.024170496705561498 0.004410335386197516 -0.03990375814138603 -0.03837290808101901 0.017519167377369308 -19.72936122630638 -0.04203583169609355 -0.011075007913938133 0.013319209557204347 -0.0348861749134033 0.01301619701748733 0.02462127918768602 0.0002447188866688183 0.038694151967270114 24.045324174882996 0.01996064186157669 0.0026061563356962678 28.855640714805507 0.04076878722951945 -0.022122052844953125 28.875182320324534 -0.04165888325292037 -0.04669003358978727 10.438539840939427 2.397349113737464 14.93807661005485 -72.84043273299483 25.572453691650928 -18.03243176544351 16.71178291521531 -6.787660015823983 -72.01033958468149 -7.097437903059886 1.1053369306831942 -2.5625609347238614 -0.45060479252124974 0.057792244353622596 -8.141563207347017 0.04495317072437727 0.04783482230307667 44.56660065757506 -0.004519347090565249 -0.00084124308698642 44.545399754455865 12.487301967540754 0.023014470460698697 -0.0003535660847019 -0.011383289866726515 -0.02863212831431528 -0.006414314614553153 -0.029055026519422114 0.011757507874009728 -0.002980273178013046 11.123682551300696 -0.02327045246806503 0.04368244315946377 0.014401567121763614 -0.021452804750078797 -0.012518137894527617 0.024984946002762198 -0.015430390402389808 -0.015242533361688043 4.761282029500239 0.010298052722843882 0.025846196705294318 0.045018980220505524 -0.014879962241390432 -0.04402256548497758 0.0001998173067007292 -0.04901074979049429 -0.044052121140593356 -5.551977485244599 0.04722478301536181 0.043661492615878185 -6.726177148988676 0.00044650274325705246 0.001834021033232303 -6.715099795767072 0.0022791804808234184 0.03984815247052592 -0.027300278603305812 0.011328636577450455 0.013493830814311906 8.05882947492905 3.485347102933161 -19.236320636232094 -0.03886081052027123 10.409591363035368 0.016840607062574536 -5.644281320578219 -15.69842178541046 3.225599996309464 0.033245144333273385 -0.0007694260927680154 -0.04992813516845287 -0.04053667338813654 4.690121631794789 0.0023135429159994534 12.448748734319409 -8.237777751339795 6.862998030922468 0.00835206389187901 46.42664448769688 -0.03878398359460576 -4.293349285612176 -14.765154191313478 -3.872136118621462 0.03137248117215691 0.017175967077412247 0.01515217230373744 0.011509721647330617 -10.761433548709645 0.008779486848753638 
-0.04953790737089871 -0.007872594032515088 0.013313515476524955 -0.011571472239089886 0.010970106311979887 0.02833107283750625 4.205378995157361 4.278181975392122 -1.8604260334095222 -0.9440097092946502 3.8645856654101753 0.41857501826383586 -0.6734691888989102 -1.0180100703401962 0.41680519278257067 -0.4164251087778925 0.19161340387454745 -0.31246590297492194 -0.7654353702121353 13.877589405048624 0.7039195890689859 0.3247079367809225 -0.946722427355756 1.9287990713816683 0.39301126713136925 -17.903071842800273 0.10378430960423467 -8.425075753557119 3.010475942724126 -17.160535735292925 80.7158206724906 15.390004725891332 2.232414663110351 -0.5176146519230785 5.700669317704227 54.54609543698559 14.45320866741582 -0.2183373329572395 -0.9456709462429309 4.5363164309913895 -0.09717658365055322 -1.6358617555926778 0.011793021023729817 -0.010900041649279423 -56.19975555373686 -0.007675820304598493 -0.026125634449252838 -56.20283520416967 -38.7527032295663 0.004409961780896712 -0.0017762318185886121 0.0049609807059738335 -0.032215773254637696 0.038839432137164134 -0.04749583505442413 0.021743571413142183 -0.027121195736800226 -36.728055581753985 -0.022718793370354155 -0.011704528283776734 0.011069917555518359 0.02513364059947531 0.008157214516337417 -0.007156779606837428 -0.027222996730415765 0.011268111252340087 -19.75610658035257 0.003637095030856257 0.016667488893719697 0.023384712222795596 -0.038168445427074676 0.021509526782064105 -0.035255995632152995 0.005250216105070098 0.024938758555965005 24.103088327905063 -0.0022307006030592227 0.03885312851834098 28.87546179324707 -0.03272500934163959 0.009582909176835764 28.882234218981495 0.04167678524402297 -0.012158612621130455 10.217457928328823 2.3793418819043723 14.949733618669379 -72.86160099466957 26.361428868768236 -16.895268957702324 17.778021094906048 -8.29186602705259 -73.635993556403 -6.204869678533897 1.4904539283857563 -3.806365840870564 -0.4441792464736397 0.11071979897618425 -8.15542340744946 -0.03833034641853983 0.02905426271021982 44.56550164652436 -0.018637824158036737 -0.017786823116728603 44.59182665620801 12.440057453949684 -0.003868661819116998 0.013905645027381891 0.018127285345020908 0.01622322224749143 -0.006937548017734267 -0.04967983030805693 0.012766947236748222 -0.03851564177433394 11.082123045849663 0.03258087376739588 -0.001511199500997259 0.032488589954813636 -0.010187426128406611 -0.037543759034171155 0.021481368032812132 0.005457415522440406 0.025356944703914464 4.779573335344664 0.006658372274568641 -0.04961322331908692 -0.023289142164786242 -0.004365818816616881 0.009803269024801334 -0.01575255654578968 0.013852349600834741 0.012698010108716667 -5.567239494822903 0.012940447406278904 0.025648009733710998 -6.708605603692312 0.019617615466829653 -0.022838242157365563 -6.6920218431146345 -0.009909985190179839 0.012197729593905537 0.005480422334585045 0.027277879962206028 -0.004104252152219898 8.041542444377923 3.5227897603706317 -19.20942549971452 0.010268446755856288 10.419380236979828 0.019621121285046027 -5.590462209318284 -15.630300266046596 3.1764813688217504 -0.011253255923570142 -0.036740297944791535 0.03238531267451604 0.0035988958131207968 4.730731384527446 -0.04585345447098623 12.46460064074284 -8.19554101551896 6.8413593178240735 0.03373629290737793 46.395095361983785 -0.01488565812345528 -4.323554478942139 -14.72603673206713 -3.8545609426079706 0.045762372223044176 -0.03274204644712447 -0.002342369952680076 -0.035631358213568005 -10.780224970132663 -0.020887625340634923 
0.029949150494800417 -0.026034323902223384 -0.008697221900945086 0.018333611226344422 -0.01938258692429025 -0.041327067140701 4.445059723349246 4.256418990095475 -1.9184584782284453 -0.9171087829330773 3.864249822479052 0.344408223670155 -0.6452846722200625 -1.017605511773188 0.48623514061731454 -0.25454333085942954 0.13878192774264753 -0.38536579985426234 -0.5176418591615134 13.963761590856077 0.12343826960459837 0.37605691111771794 -0.9390567620964809 0.5831477324585577 0.5984952844894454 -17.97270644569941 0.02276228567601126 -8.596313356407169 3.013197360140712 -17.320707914901686 80.97922002966362 15.273304558052663 2.022341402496509 -0.3199899110944218 5.608384424902385 53.50896410864202 14.620739824638928 -0.19624633314232867 -0.7814730304662102 4.545673455023461 -0.16050566849066866 -1.6005845432328398 0.0034571307560733048 -0.04309498287644894 -56.24939277317482 0.0385749165767087 0.016003990989108784 -56.28034205750817 -38.75600817497313 0.03021866196876128 -0.01648418780062752 0.02290837282990143 0.0121988509689743 -0.014678694489594189 -0.001547072459890085 -0.03430289667269706 -0.03553785865600632 -36.74290447154267 -0.012834429552951275 0.02527153193741018 -0.040813077432585436 0.018580146813436827 -0.02796906128677543 0.039851301477111994 -0.019889203017195087 -0.0313497502389227 -19.780698840279367 -0.016381285701014846 0.005548449552299769 -0.043608667808220265 0.005775746228442134 0.007124819260469774 -0.024361961402851115 0.04159994926061721 -0.018252720246079802 24.030870629181464 0.011441464170541584 0.0012306822291708959 28.832675814483828 0.011082028101844494 0.015859238459452543 28.8780094801997 0.010658973719283758 -0.041143214503386025 10.040572990433283 2.3316889985382048 14.96062391604488 -72.93742436973885 27.169639322266843 -15.76189698618363 18.22150570083134 -8.996992660214813 -75.51174173270614 -5.585187338971774 2.016445053580457 -5.05689820636857 -0.43940531432555424 0.09848888153626084 -8.153524636512362 0.04930245129416626 0.0007618096737437964 44.595186338822735 -0.009062459597930526 0.012656570669025796 44.520513372364285 12.449246911262115 6.2946906298924295e-06 0.0010210811387370705 0.02092609076894213 -0.006504597792185343 0.04755849368884657 0.02131532379395856 -0.03693301952466143 -0.0047709356092329016 11.12746317300677 0.04743909582970768 0.010606103440454744 0.013921446395844195 0.035869565512408906 -0.03873484675982551 0.03981961349455001 -0.02609135924651622 -0.01998771687454941 4.772973484943299 0.00742531700224802 0.019055735151247866 -0.039801966765083525 0.005282031745363437 -0.031796829507743804 -0.014363037621077341 -0.011366985794417752 -0.03551552344533407 -5.63517863291029 -0.013424289187896992 0.03594397357621298 -6.718471484879837 0.0019907574569519304 -0.004098298092414297 -6.764126452257251 0.022167222964666274 0.006995526730656084 -0.0026192418472180657 -0.0038231234367536774 -0.04520261831831152 8.027284818712314 3.5288406300896975 -19.20453385328302 0.036900831253210475 10.416571413873733 -0.03151213529266973 -5.6530832820536405 -15.641061006620317 3.1981049603128398 -0.019850891988403997 -0.0005075932459944473 0.02625415251452523 -0.017188438543423865 4.7004576414133545 -0.007353471242461312 12.50479389513527 -8.195475359342934 6.883857157146703 0.006291132002060047 46.366840138749474 -0.00818487480129833 -4.3254337172876625 -14.74515856009031 -3.872882362951393 -0.03258305984028335 0.005647367157329782 -0.013000418305052058 0.041636886161990225 -10.772368270290757 -0.015513287721868621 
-0.030248795558833516 -0.005662608396536418 -0.04791374323439092 -0.009707989510916755 -0.04965155604486175 -0.02972897840676175 4.695987192930205 4.14751295811946 -1.9070666757253651 -0.8419774748439982 3.8857781550735564 0.39142794631267136 -0.6754688404936644 -1.0744765873511453 0.49894609271646734 -0.12467016077473086 0.12572188229943218 -0.3588895197060347 -0.34729000871517934 13.920210043273274 -0.498422926186648 0.3728129625418424 -1.01836864519653 -0.698775200733678 0.8520849862123148 -18.145886914507912 -0.10860590278525997 -8.793192797662806 3.0184721790046902 -17.503573035662015 81.18619983666821 14.78465159258841 1.806389086456338 -0.17335828134483386 5.458796082771733 52.369513434693715 14.777349429281745 -0.1237839140686183 -0.48834007017988945 4.541734619853476 -0.0844193789714755 -1.575583975264615 -0.01130172542428882 0.02406790062850195 -56.259388247860734 0.02153859538930595 0.0020031229768968386 -56.22205230095454 -38.809073468780085 0.0028930011341065784 -0.01619093107280615 0.0004811717067560694 -0.044620511831442014 0.0069920855180599225 0.00033882739894367913 -0.04830079401840798 0.04281936300819276 -36.66360298306296 -0.03948200398556875 -0.012491674563551016 0.03734942371540836 -0.0038358207320126434 -0.010987847688495821 -0.024808509806186353 -0.04586979707939676 -0.0035964731744691325 -19.747707985621556 -0.005604935775907131 0.033182682470090256 -0.004649536221057569 0.027696027327725796 0.031704078595113615 0.0006451638886038265 -0.0366574349374108 -0.018148126850417452 24.08228452745265 -0.015492965394169764 0.031206043110414146 28.856492881716292 -0.0030119728300083 0.015736611957134914 28.842146841499325 -0.0471189701683416 0.028985051812484335 9.86242800535479 2.326026455251078 15.031732914451434 -73.15943520159236 27.57365912841916 -14.883320917943248 17.832833945359365 -9.207931980011153 -76.31758440783166 -5.436191694593364 2.460871355733022 -5.853409937889043 -0.43976944298623744 0.059217250759432793 -8.096201365565895 -0.02346234778751218 0.007128359852447376 44.60451282558204 -0.010667088266775681 -0.019501309393046194 44.52421879240996 12.487348794358047 0.04324998804323221 -0.0370525762769477 -0.0093316184733951 0.023967237947708088 0.025127391622830057 0.04427842223718534 -0.013879350990966363 -0.019909513559687973 11.151768735706362 0.014074409001792838 -0.0006035642752724276 0.04773817530990065 -0.0054426247126901596 -0.008060200752308318 0.03726336712307807 0.02199313624742024 -0.011059457090178196 4.734619804890685 -0.008423777506188682 0.039043382959685104 -0.005740698671223666 0.021346639657709075 0.005414951329022318 0.017767406070560203 -0.04767360735631064 -0.025901335213486712 -5.610961974115067 -0.03764301636407048 0.03485428640469071 -6.739590509587964 0.011528733882973596 -0.010754253836588883 -6.759504228063687 0.03590294200840112 -0.023253687890630984 -0.03097618008592781 -0.012260647678714681 -0.047530620033389044 8.014088470302429 3.4757947685844752 -19.20909754578593 -0.006866530030660845 10.407617550124726 0.00900104882123509 -5.636947107469839 -15.647637191427425 3.2063589448030982 -0.04036821369018673 0.004584189551375219 0.003214022976608439 0.03323537103029122 4.671243639672231 -0.029493129729155045 12.445513398246481 -8.271369192254568 6.907890285668997 -0.03463317487027177 46.425731819832976 0.043548138007359044 -4.305139286579659 -14.768694937476694 -3.81665308203596 0.0052645019148420255 -0.033689556261039644 -0.033804235434472855 -0.010376218547403499 -10.793543538507288 0.020493969743080483 
